<mxfile host="app.diagrams.net" modified="2022-02-16T09:38:22.814Z" agent="5.0 (Windows NT 10.0; Win64; x64) AppleWebKit/537.36 (KHTML, like Gecko) Chrome/98.0.4758.82 Safari/537.36" etag="iDXmCXf3dx2DFj6xFtnJ" version="16.5.6" type="github">
  <diagram id="C5RBs43oDa-KdzZeNtuy" name="Page-1">
    <mxGraphModel dx="2062" dy="1113" grid="1" gridSize="10" guides="1" tooltips="1" connect="1" arrows="1" fold="1" page="1" pageScale="1" pageWidth="827" pageHeight="1169" math="0" shadow="0">
      <root>
        <mxCell id="WIyWlLk6GJQsqaUBKTNV-0" />
        <mxCell id="WIyWlLk6GJQsqaUBKTNV-1" parent="WIyWlLk6GJQsqaUBKTNV-0" />
        <mxCell id="tyFgzYTmBlXFPxsIGdar-0" value="&lt;font style=&quot;font-size: 24px&quot; face=&quot;Courier New&quot;&gt;SmartLock&lt;/font&gt;" style="rounded=0;whiteSpace=wrap;html=1;fillColor=#008a00;strokeColor=#005700;fontColor=#ffffff;" vertex="1" parent="WIyWlLk6GJQsqaUBKTNV-1">
          <mxGeometry x="160" y="91" width="490" height="100" as="geometry" />
        </mxCell>
        <mxCell id="tyFgzYTmBlXFPxsIGdar-3" value="" style="rounded=0;whiteSpace=wrap;html=1;fontFamily=Courier New;fontSize=24;fillColor=#647687;strokeColor=#314354;fontColor=#ffffff;" vertex="1" parent="WIyWlLk6GJQsqaUBKTNV-1">
          <mxGeometry x="160" y="210" width="490" height="370" as="geometry" />
        </mxCell>
        <mxCell id="tyFgzYTmBlXFPxsIGdar-4" value="Lock" style="rounded=0;whiteSpace=wrap;html=1;fontFamily=Courier New;fontSize=24;fillColor=#008a00;fontColor=#ffffff;strokeColor=#005700;" vertex="1" parent="WIyWlLk6GJQsqaUBKTNV-1">
          <mxGeometry x="224" y="259" width="380" height="60" as="geometry" />
        </mxCell>
        <mxCell id="tyFgzYTmBlXFPxsIGdar-5" value="AQS" style="rounded=0;whiteSpace=wrap;html=1;fontFamily=Courier New;fontSize=24;fillColor=#008a00;fontColor=#ffffff;strokeColor=#005700;" vertex="1" parent="WIyWlLk6GJQsqaUBKTNV-1">
          <mxGeometry x="224" y="459" width="380" height="60" as="geometry" />
        </mxCell>
        <mxCell id="tyFgzYTmBlXFPxsIGdar-6" value="tryAcquire" style="rounded=0;whiteSpace=wrap;html=1;fontFamily=Courier New;fontSize=24;fillColor=#008a00;fontColor=#ffffff;strokeColor=#005700;" vertex="1" parent="WIyWlLk6GJQsqaUBKTNV-1">
          <mxGeometry x="226" y="359" width="156" height="70" as="geometry" />
        </mxCell>
        <mxCell id="tyFgzYTmBlXFPxsIGdar-7" value="tryRelease" style="rounded=0;whiteSpace=wrap;html=1;fontFamily=Courier New;fontSize=24;fillColor=#008a00;fontColor=#ffffff;strokeColor=#005700;" vertex="1" parent="WIyWlLk6GJQsqaUBKTNV-1">
          <mxGeometry x="448" y="359" width="156" height="70" as="geometry" />
        </mxCell>
        <mxCell id="tyFgzYTmBlXFPxsIGdar-8" value="&lt;font style=&quot;font-size: 24px&quot; face=&quot;Courier New&quot;&gt;CAS+Volatile+Node&lt;/font&gt;" style="rounded=0;whiteSpace=wrap;html=1;fillColor=#008a00;strokeColor=#005700;fontColor=#ffffff;" vertex="1" parent="WIyWlLk6GJQsqaUBKTNV-1">
          <mxGeometry x="160" y="604" width="490" height="100" as="geometry" />
        </mxCell>
      </root>
    </mxGraphModel>
  </diagram>
</mxfile>
